<mxfile host="www.draw.io" modified="2019-11-11T14:09:13.965Z" agent="Mozilla/5.0 (Windows NT 10.0; Win64; x64) AppleWebKit/537.36 (KHTML, like Gecko) Chrome/78.0.3904.97 Safari/537.36" etag="lC2ScGBWg30vTFJVvrZe" version="12.2.3" type="github" pages="3">
  <diagram name="类图" id="c4acf3e9-155e-7222-9cf6-157b1a14988f">
    <mxGraphModel dx="870" dy="495" grid="1" gridSize="10" guides="1" tooltips="1" connect="1" arrows="1" fold="1" page="1" pageScale="1" pageWidth="850" pageHeight="1100" background="#ffffff" math="0" shadow="0">
      <root>
        <mxCell id="0"/>
        <mxCell id="1" parent="0"/>
        <mxCell id="_bCPvopoZGER6yHDOMZf-1" value="ChannelOutboundInvoker" style="swimlane;fontStyle=1;align=center;verticalAlign=top;childLayout=stackLayout;horizontal=1;startSize=26;horizontalStack=0;resizeParent=1;resizeParentMax=0;resizeLast=0;collapsible=1;marginBottom=0;" vertex="1" parent="1">
          <mxGeometry x="60" y="40" width="290" height="138" as="geometry"/>
        </mxCell>
        <mxCell id="_bCPvopoZGER6yHDOMZf-3" value="" style="line;strokeWidth=1;fillColor=none;align=left;verticalAlign=middle;spacingTop=-1;spacingLeft=3;spacingRight=3;rotatable=0;labelPosition=right;points=[];portConstraint=eastwest;" vertex="1" parent="_bCPvopoZGER6yHDOMZf-1">
          <mxGeometry y="26" width="290" height="8" as="geometry"/>
        </mxCell>
        <mxCell id="_bCPvopoZGER6yHDOMZf-4" value="+ connect(ChannelPromise)" style="text;strokeColor=none;fillColor=none;align=left;verticalAlign=top;spacingLeft=4;spacingRight=4;overflow=hidden;rotatable=0;points=[[0,0.5],[1,0.5]];portConstraint=eastwest;fontStyle=2" vertex="1" parent="_bCPvopoZGER6yHDOMZf-1">
          <mxGeometry y="34" width="290" height="26" as="geometry"/>
        </mxCell>
        <mxCell id="_bCPvopoZGER6yHDOMZf-10" value="+ disconnect(ChannelPromise)" style="text;strokeColor=none;fillColor=none;align=left;verticalAlign=top;spacingLeft=4;spacingRight=4;overflow=hidden;rotatable=0;points=[[0,0.5],[1,0.5]];portConstraint=eastwest;fontStyle=2" vertex="1" parent="_bCPvopoZGER6yHDOMZf-1">
          <mxGeometry y="60" width="290" height="26" as="geometry"/>
        </mxCell>
        <mxCell id="_bCPvopoZGER6yHDOMZf-11" value="+ write(const Any&amp;message, ChannelPromise)" style="text;strokeColor=none;fillColor=none;align=left;verticalAlign=top;spacingLeft=4;spacingRight=4;overflow=hidden;rotatable=0;points=[[0,0.5],[1,0.5]];portConstraint=eastwest;fontStyle=2" vertex="1" parent="_bCPvopoZGER6yHDOMZf-1">
          <mxGeometry y="86" width="290" height="26" as="geometry"/>
        </mxCell>
        <mxCell id="_bCPvopoZGER6yHDOMZf-24" value="+ fflush()" style="text;strokeColor=none;fillColor=none;align=left;verticalAlign=top;spacingLeft=4;spacingRight=4;overflow=hidden;rotatable=0;points=[[0,0.5],[1,0.5]];portConstraint=eastwest;fontStyle=2" vertex="1" parent="_bCPvopoZGER6yHDOMZf-1">
          <mxGeometry y="112" width="290" height="26" as="geometry"/>
        </mxCell>
        <mxCell id="_bCPvopoZGER6yHDOMZf-13" value="Channel" style="swimlane;fontStyle=1;align=center;verticalAlign=top;childLayout=stackLayout;horizontal=1;startSize=26;horizontalStack=0;resizeParent=1;resizeParentMax=0;resizeLast=0;collapsible=1;marginBottom=0;" vertex="1" parent="1">
          <mxGeometry x="60" y="250" width="290" height="112" as="geometry"/>
        </mxCell>
        <mxCell id="_bCPvopoZGER6yHDOMZf-16" value="" style="line;strokeWidth=1;fillColor=none;align=left;verticalAlign=middle;spacingTop=-1;spacingLeft=3;spacingRight=3;rotatable=0;labelPosition=right;points=[];portConstraint=eastwest;" vertex="1" parent="_bCPvopoZGER6yHDOMZf-13">
          <mxGeometry y="26" width="290" height="8" as="geometry"/>
        </mxCell>
        <mxCell id="_bCPvopoZGER6yHDOMZf-17" value="+ isActive() bool" style="text;strokeColor=none;fillColor=none;align=left;verticalAlign=top;spacingLeft=4;spacingRight=4;overflow=hidden;rotatable=0;points=[[0,0.5],[1,0.5]];portConstraint=eastwest;" vertex="1" parent="_bCPvopoZGER6yHDOMZf-13">
          <mxGeometry y="34" width="290" height="26" as="geometry"/>
        </mxCell>
        <mxCell id="_bCPvopoZGER6yHDOMZf-18" value="+ eventloop()  std::shared_ptr&lt;EventLoop&gt;" style="text;strokeColor=none;fillColor=none;align=left;verticalAlign=top;spacingLeft=4;spacingRight=4;overflow=hidden;rotatable=0;points=[[0,0.5],[1,0.5]];portConstraint=eastwest;" vertex="1" parent="_bCPvopoZGER6yHDOMZf-13">
          <mxGeometry y="60" width="290" height="26" as="geometry"/>
        </mxCell>
        <mxCell id="_bCPvopoZGER6yHDOMZf-19" value="+ pileline() std::shared_ptr&lt;EventLoop&gt;" style="text;strokeColor=none;fillColor=none;align=left;verticalAlign=top;spacingLeft=4;spacingRight=4;overflow=hidden;rotatable=0;points=[[0,0.5],[1,0.5]];portConstraint=eastwest;" vertex="1" parent="_bCPvopoZGER6yHDOMZf-13">
          <mxGeometry y="86" width="290" height="26" as="geometry"/>
        </mxCell>
        <mxCell id="_bCPvopoZGER6yHDOMZf-26" value="" style="endArrow=block;dashed=1;endFill=0;endSize=12;html=1;entryX=0.478;entryY=1.046;entryDx=0;entryDy=0;entryPerimeter=0;exitX=0.472;exitY=-0.018;exitDx=0;exitDy=0;exitPerimeter=0;" edge="1" parent="1" source="_bCPvopoZGER6yHDOMZf-13" target="_bCPvopoZGER6yHDOMZf-24">
          <mxGeometry width="160" relative="1" as="geometry">
            <mxPoint x="200" y="310" as="sourcePoint"/>
            <mxPoint x="360" y="310" as="targetPoint"/>
          </mxGeometry>
        </mxCell>
        <mxCell id="_bCPvopoZGER6yHDOMZf-28" value="EventLoop" style="swimlane;fontStyle=1;align=center;verticalAlign=top;childLayout=stackLayout;horizontal=1;startSize=26;horizontalStack=0;resizeParent=1;resizeParentMax=0;resizeLast=0;collapsible=1;marginBottom=0;" vertex="1" parent="1">
          <mxGeometry x="60" y="460" width="440" height="242" as="geometry"/>
        </mxCell>
        <mxCell id="_bCPvopoZGER6yHDOMZf-31" value="" style="line;strokeWidth=1;fillColor=none;align=left;verticalAlign=middle;spacingTop=-1;spacingLeft=3;spacingRight=3;rotatable=0;labelPosition=right;points=[];portConstraint=eastwest;" vertex="1" parent="_bCPvopoZGER6yHDOMZf-28">
          <mxGeometry y="26" width="440" height="8" as="geometry"/>
        </mxCell>
        <mxCell id="_bCPvopoZGER6yHDOMZf-32" value="+ run()" style="text;strokeColor=none;fillColor=none;align=left;verticalAlign=top;spacingLeft=4;spacingRight=4;overflow=hidden;rotatable=0;points=[[0,0.5],[1,0.5]];portConstraint=eastwest;" vertex="1" parent="_bCPvopoZGER6yHDOMZf-28">
          <mxGeometry y="34" width="440" height="26" as="geometry"/>
        </mxCell>
        <mxCell id="_bCPvopoZGER6yHDOMZf-87" value="+ runInLoop(Task)" style="text;strokeColor=none;fillColor=none;align=left;verticalAlign=top;spacingLeft=4;spacingRight=4;overflow=hidden;rotatable=0;points=[[0,0.5],[1,0.5]];portConstraint=eastwest;" vertex="1" parent="_bCPvopoZGER6yHDOMZf-28">
          <mxGeometry y="60" width="440" height="26" as="geometry"/>
        </mxCell>
        <mxCell id="_bCPvopoZGER6yHDOMZf-33" value="+ queueInLoop(Task)" style="text;strokeColor=none;fillColor=none;align=left;verticalAlign=top;spacingLeft=4;spacingRight=4;overflow=hidden;rotatable=0;points=[[0,0.5],[1,0.5]];portConstraint=eastwest;" vertex="1" parent="_bCPvopoZGER6yHDOMZf-28">
          <mxGeometry y="86" width="440" height="26" as="geometry"/>
        </mxCell>
        <mxCell id="_bCPvopoZGER6yHDOMZf-37" value="+ TimerId runAt(TimerPoint, TimerCallback)" style="text;strokeColor=none;fillColor=none;align=left;verticalAlign=top;spacingLeft=4;spacingRight=4;overflow=hidden;rotatable=0;points=[[0,0.5],[1,0.5]];portConstraint=eastwest;" vertex="1" parent="_bCPvopoZGER6yHDOMZf-28">
          <mxGeometry y="112" width="440" height="26" as="geometry"/>
        </mxCell>
        <mxCell id="_bCPvopoZGER6yHDOMZf-38" value="+ TimerId runAfter(std::chrono::milliseconds, TimerCallback)" style="text;strokeColor=none;fillColor=none;align=left;verticalAlign=top;spacingLeft=4;spacingRight=4;overflow=hidden;rotatable=0;points=[[0,0.5],[1,0.5]];portConstraint=eastwest;" vertex="1" parent="_bCPvopoZGER6yHDOMZf-28">
          <mxGeometry y="138" width="440" height="26" as="geometry"/>
        </mxCell>
        <mxCell id="_bCPvopoZGER6yHDOMZf-42" value="+ TimerId runEvery(std::chrono::milliseconds, TimerCallback)" style="text;strokeColor=none;fillColor=none;align=left;verticalAlign=top;spacingLeft=4;spacingRight=4;overflow=hidden;rotatable=0;points=[[0,0.5],[1,0.5]];portConstraint=eastwest;" vertex="1" parent="_bCPvopoZGER6yHDOMZf-28">
          <mxGeometry y="164" width="440" height="26" as="geometry"/>
        </mxCell>
        <mxCell id="_bCPvopoZGER6yHDOMZf-43" value="+ TimerId cancel(TimerId)" style="text;strokeColor=none;fillColor=none;align=left;verticalAlign=top;spacingLeft=4;spacingRight=4;overflow=hidden;rotatable=0;points=[[0,0.5],[1,0.5]];portConstraint=eastwest;" vertex="1" parent="_bCPvopoZGER6yHDOMZf-28">
          <mxGeometry y="190" width="440" height="26" as="geometry"/>
        </mxCell>
        <mxCell id="_bCPvopoZGER6yHDOMZf-34" value="+ quitSafely()" style="text;strokeColor=none;fillColor=none;align=left;verticalAlign=top;spacingLeft=4;spacingRight=4;overflow=hidden;rotatable=0;points=[[0,0.5],[1,0.5]];portConstraint=eastwest;" vertex="1" parent="_bCPvopoZGER6yHDOMZf-28">
          <mxGeometry y="216" width="440" height="26" as="geometry"/>
        </mxCell>
        <mxCell id="_bCPvopoZGER6yHDOMZf-46" value="Poller" style="swimlane;fontStyle=1;align=center;verticalAlign=top;childLayout=stackLayout;horizontal=1;startSize=26;horizontalStack=0;resizeParent=1;resizeParentMax=0;resizeLast=0;collapsible=1;marginBottom=0;" vertex="1" parent="1">
          <mxGeometry x="40" y="770" width="290" height="164" as="geometry"/>
        </mxCell>
        <mxCell id="_bCPvopoZGER6yHDOMZf-47" value="-  field: mEventsList" style="text;strokeColor=none;fillColor=none;align=left;verticalAlign=top;spacingLeft=4;spacingRight=4;overflow=hidden;rotatable=0;points=[[0,0.5],[1,0.5]];portConstraint=eastwest;" vertex="1" parent="_bCPvopoZGER6yHDOMZf-46">
          <mxGeometry y="26" width="290" height="26" as="geometry"/>
        </mxCell>
        <mxCell id="_bCPvopoZGER6yHDOMZf-49" value="" style="line;strokeWidth=1;fillColor=none;align=left;verticalAlign=middle;spacingTop=-1;spacingLeft=3;spacingRight=3;rotatable=0;labelPosition=right;points=[];portConstraint=eastwest;" vertex="1" parent="_bCPvopoZGER6yHDOMZf-46">
          <mxGeometry y="52" width="290" height="8" as="geometry"/>
        </mxCell>
        <mxCell id="_bCPvopoZGER6yHDOMZf-50" value="+ poll(std::chrono::milliseconds, EventsList)" style="text;strokeColor=none;fillColor=none;align=left;verticalAlign=top;spacingLeft=4;spacingRight=4;overflow=hidden;rotatable=0;points=[[0,0.5],[1,0.5]];portConstraint=eastwest;fontStyle=0" vertex="1" parent="_bCPvopoZGER6yHDOMZf-46">
          <mxGeometry y="60" width="290" height="26" as="geometry"/>
        </mxCell>
        <mxCell id="_bCPvopoZGER6yHDOMZf-51" value="+ addEvent(Event)" style="text;strokeColor=none;fillColor=none;align=left;verticalAlign=top;spacingLeft=4;spacingRight=4;overflow=hidden;rotatable=0;points=[[0,0.5],[1,0.5]];portConstraint=eastwest;fontStyle=0" vertex="1" parent="_bCPvopoZGER6yHDOMZf-46">
          <mxGeometry y="86" width="290" height="26" as="geometry"/>
        </mxCell>
        <mxCell id="_bCPvopoZGER6yHDOMZf-77" value="+ updateEvent(Event)" style="text;strokeColor=none;fillColor=none;align=left;verticalAlign=top;spacingLeft=4;spacingRight=4;overflow=hidden;rotatable=0;points=[[0,0.5],[1,0.5]];portConstraint=eastwest;fontStyle=0" vertex="1" parent="_bCPvopoZGER6yHDOMZf-46">
          <mxGeometry y="112" width="290" height="26" as="geometry"/>
        </mxCell>
        <mxCell id="_bCPvopoZGER6yHDOMZf-78" value="+ removeEvent(Event)" style="text;strokeColor=none;fillColor=none;align=left;verticalAlign=top;spacingLeft=4;spacingRight=4;overflow=hidden;rotatable=0;points=[[0,0.5],[1,0.5]];portConstraint=eastwest;fontStyle=0" vertex="1" parent="_bCPvopoZGER6yHDOMZf-46">
          <mxGeometry y="138" width="290" height="26" as="geometry"/>
        </mxCell>
        <mxCell id="_bCPvopoZGER6yHDOMZf-53" value="Event" style="swimlane;fontStyle=1;align=center;verticalAlign=top;childLayout=stackLayout;horizontal=1;startSize=26;horizontalStack=0;resizeParent=1;resizeParentMax=0;resizeLast=0;collapsible=1;marginBottom=0;" vertex="1" parent="1">
          <mxGeometry x="400" y="770" width="290" height="294" as="geometry"/>
        </mxCell>
        <mxCell id="_bCPvopoZGER6yHDOMZf-56" value="" style="line;strokeWidth=1;fillColor=none;align=left;verticalAlign=middle;spacingTop=-1;spacingLeft=3;spacingRight=3;rotatable=0;labelPosition=right;points=[];portConstraint=eastwest;" vertex="1" parent="_bCPvopoZGER6yHDOMZf-53">
          <mxGeometry y="26" width="290" height="8" as="geometry"/>
        </mxCell>
        <mxCell id="_bCPvopoZGER6yHDOMZf-58" value="+ setReadCallback()" style="text;strokeColor=none;fillColor=none;align=left;verticalAlign=top;spacingLeft=4;spacingRight=4;overflow=hidden;rotatable=0;points=[[0,0.5],[1,0.5]];portConstraint=eastwest;" vertex="1" parent="_bCPvopoZGER6yHDOMZf-53">
          <mxGeometry y="34" width="290" height="26" as="geometry"/>
        </mxCell>
        <mxCell id="_bCPvopoZGER6yHDOMZf-60" value="+ setWriteCallback()" style="text;strokeColor=none;fillColor=none;align=left;verticalAlign=top;spacingLeft=4;spacingRight=4;overflow=hidden;rotatable=0;points=[[0,0.5],[1,0.5]];portConstraint=eastwest;" vertex="1" parent="_bCPvopoZGER6yHDOMZf-53">
          <mxGeometry y="60" width="290" height="26" as="geometry"/>
        </mxCell>
        <mxCell id="_bCPvopoZGER6yHDOMZf-61" value="+ setErrorCallback()" style="text;strokeColor=none;fillColor=none;align=left;verticalAlign=top;spacingLeft=4;spacingRight=4;overflow=hidden;rotatable=0;points=[[0,0.5],[1,0.5]];portConstraint=eastwest;" vertex="1" parent="_bCPvopoZGER6yHDOMZf-53">
          <mxGeometry y="86" width="290" height="26" as="geometry"/>
        </mxCell>
        <mxCell id="_bCPvopoZGER6yHDOMZf-62" value="+ setCloseCallback()" style="text;strokeColor=none;fillColor=none;align=left;verticalAlign=top;spacingLeft=4;spacingRight=4;overflow=hidden;rotatable=0;points=[[0,0.5],[1,0.5]];portConstraint=eastwest;" vertex="1" parent="_bCPvopoZGER6yHDOMZf-53">
          <mxGeometry y="112" width="290" height="26" as="geometry"/>
        </mxCell>
        <mxCell id="_bCPvopoZGER6yHDOMZf-63" value="+ getFileDescriptor() int" style="text;strokeColor=none;fillColor=none;align=left;verticalAlign=top;spacingLeft=4;spacingRight=4;overflow=hidden;rotatable=0;points=[[0,0.5],[1,0.5]];portConstraint=eastwest;" vertex="1" parent="_bCPvopoZGER6yHDOMZf-53">
          <mxGeometry y="138" width="290" height="26" as="geometry"/>
        </mxCell>
        <mxCell id="_bCPvopoZGER6yHDOMZf-64" value="+ setFileDescriptor(int )" style="text;strokeColor=none;fillColor=none;align=left;verticalAlign=top;spacingLeft=4;spacingRight=4;overflow=hidden;rotatable=0;points=[[0,0.5],[1,0.5]];portConstraint=eastwest;" vertex="1" parent="_bCPvopoZGER6yHDOMZf-53">
          <mxGeometry y="164" width="290" height="26" as="geometry"/>
        </mxCell>
        <mxCell id="_bCPvopoZGER6yHDOMZf-69" value="+ disableEvent(EventType type)" style="text;strokeColor=none;fillColor=none;align=left;verticalAlign=top;spacingLeft=4;spacingRight=4;overflow=hidden;rotatable=0;points=[[0,0.5],[1,0.5]];portConstraint=eastwest;" vertex="1" parent="_bCPvopoZGER6yHDOMZf-53">
          <mxGeometry y="190" width="290" height="26" as="geometry"/>
        </mxCell>
        <mxCell id="_bCPvopoZGER6yHDOMZf-70" value="+ enableEvent(EnentType type)" style="text;strokeColor=none;fillColor=none;align=left;verticalAlign=top;spacingLeft=4;spacingRight=4;overflow=hidden;rotatable=0;points=[[0,0.5],[1,0.5]];portConstraint=eastwest;" vertex="1" parent="_bCPvopoZGER6yHDOMZf-53">
          <mxGeometry y="216" width="290" height="26" as="geometry"/>
        </mxCell>
        <mxCell id="_bCPvopoZGER6yHDOMZf-74" value="+ setEventOfInterest(int )" style="text;strokeColor=none;fillColor=none;align=left;verticalAlign=top;spacingLeft=4;spacingRight=4;overflow=hidden;rotatable=0;points=[[0,0.5],[1,0.5]];portConstraint=eastwest;" vertex="1" parent="_bCPvopoZGER6yHDOMZf-53">
          <mxGeometry y="242" width="290" height="26" as="geometry"/>
        </mxCell>
        <mxCell id="_bCPvopoZGER6yHDOMZf-76" value="+ isNoneEvent() int" style="text;strokeColor=none;fillColor=none;align=left;verticalAlign=top;spacingLeft=4;spacingRight=4;overflow=hidden;rotatable=0;points=[[0,0.5],[1,0.5]];portConstraint=eastwest;" vertex="1" parent="_bCPvopoZGER6yHDOMZf-53">
          <mxGeometry y="268" width="290" height="26" as="geometry"/>
        </mxCell>
        <mxCell id="_bCPvopoZGER6yHDOMZf-89" value="ChannelPipeline" style="swimlane;fontStyle=1;align=center;verticalAlign=top;childLayout=stackLayout;horizontal=1;startSize=26;horizontalStack=0;resizeParent=1;resizeParentMax=0;resizeLast=0;collapsible=1;marginBottom=0;" vertex="1" parent="1">
          <mxGeometry x="450" y="250" width="290" height="138" as="geometry"/>
        </mxCell>
        <mxCell id="_bCPvopoZGER6yHDOMZf-91" value="- ChannelHandlerContext mHead" style="text;strokeColor=none;fillColor=none;align=left;verticalAlign=top;spacingLeft=4;spacingRight=4;overflow=hidden;rotatable=0;points=[[0,0.5],[1,0.5]];portConstraint=eastwest;" vertex="1" parent="_bCPvopoZGER6yHDOMZf-89">
          <mxGeometry y="26" width="290" height="26" as="geometry"/>
        </mxCell>
        <mxCell id="_bCPvopoZGER6yHDOMZf-103" value="- ChannelHandlerContext mTail" style="text;strokeColor=none;fillColor=none;align=left;verticalAlign=top;spacingLeft=4;spacingRight=4;overflow=hidden;rotatable=0;points=[[0,0.5],[1,0.5]];portConstraint=eastwest;" vertex="1" parent="_bCPvopoZGER6yHDOMZf-89">
          <mxGeometry y="52" width="290" height="26" as="geometry"/>
        </mxCell>
        <mxCell id="_bCPvopoZGER6yHDOMZf-90" value="" style="line;strokeWidth=1;fillColor=none;align=left;verticalAlign=middle;spacingTop=-1;spacingLeft=3;spacingRight=3;rotatable=0;labelPosition=right;points=[];portConstraint=eastwest;" vertex="1" parent="_bCPvopoZGER6yHDOMZf-89">
          <mxGeometry y="78" width="290" height="8" as="geometry"/>
        </mxCell>
        <mxCell id="_bCPvopoZGER6yHDOMZf-94" value="+ addLast(std::shared_ptr&lt;ChannelHandler&gt;)" style="text;strokeColor=none;fillColor=none;align=left;verticalAlign=top;spacingLeft=4;spacingRight=4;overflow=hidden;rotatable=0;points=[[0,0.5],[1,0.5]];portConstraint=eastwest;" vertex="1" parent="_bCPvopoZGER6yHDOMZf-89">
          <mxGeometry y="86" width="290" height="26" as="geometry"/>
        </mxCell>
        <mxCell id="_bCPvopoZGER6yHDOMZf-102" value="+ addFirst(std::shared_ptr&lt;ChannelHandler&gt;)" style="text;strokeColor=none;fillColor=none;align=left;verticalAlign=top;spacingLeft=4;spacingRight=4;overflow=hidden;rotatable=0;points=[[0,0.5],[1,0.5]];portConstraint=eastwest;" vertex="1" parent="_bCPvopoZGER6yHDOMZf-89">
          <mxGeometry y="112" width="290" height="26" as="geometry"/>
        </mxCell>
        <mxCell id="_bCPvopoZGER6yHDOMZf-96" value="ChannelInboundInvoker" style="swimlane;fontStyle=1;align=center;verticalAlign=top;childLayout=stackLayout;horizontal=1;startSize=26;horizontalStack=0;resizeParent=1;resizeParentMax=0;resizeLast=0;collapsible=1;marginBottom=0;" vertex="1" parent="1">
          <mxGeometry x="440" y="40" width="290" height="138" as="geometry"/>
        </mxCell>
        <mxCell id="_bCPvopoZGER6yHDOMZf-97" value="" style="line;strokeWidth=1;fillColor=none;align=left;verticalAlign=middle;spacingTop=-1;spacingLeft=3;spacingRight=3;rotatable=0;labelPosition=right;points=[];portConstraint=eastwest;" vertex="1" parent="_bCPvopoZGER6yHDOMZf-96">
          <mxGeometry y="26" width="290" height="8" as="geometry"/>
        </mxCell>
        <mxCell id="_bCPvopoZGER6yHDOMZf-98" value="+ fireChannelActive()" style="text;strokeColor=none;fillColor=none;align=left;verticalAlign=top;spacingLeft=4;spacingRight=4;overflow=hidden;rotatable=0;points=[[0,0.5],[1,0.5]];portConstraint=eastwest;fontStyle=2" vertex="1" parent="_bCPvopoZGER6yHDOMZf-96">
          <mxGeometry y="34" width="290" height="26" as="geometry"/>
        </mxCell>
        <mxCell id="_bCPvopoZGER6yHDOMZf-100" value="+ fireChannelRead(Any &amp;message)" style="text;strokeColor=none;fillColor=none;align=left;verticalAlign=top;spacingLeft=4;spacingRight=4;overflow=hidden;rotatable=0;points=[[0,0.5],[1,0.5]];portConstraint=eastwest;fontStyle=2" vertex="1" parent="_bCPvopoZGER6yHDOMZf-96">
          <mxGeometry y="60" width="290" height="26" as="geometry"/>
        </mxCell>
        <mxCell id="_bCPvopoZGER6yHDOMZf-101" value="+ fireChannelExceptionCaught()" style="text;strokeColor=none;fillColor=none;align=left;verticalAlign=top;spacingLeft=4;spacingRight=4;overflow=hidden;rotatable=0;points=[[0,0.5],[1,0.5]];portConstraint=eastwest;fontStyle=2" vertex="1" parent="_bCPvopoZGER6yHDOMZf-96">
          <mxGeometry y="86" width="290" height="26" as="geometry"/>
        </mxCell>
        <mxCell id="_bCPvopoZGER6yHDOMZf-99" value="+ fireChannelIncative()" style="text;strokeColor=none;fillColor=none;align=left;verticalAlign=top;spacingLeft=4;spacingRight=4;overflow=hidden;rotatable=0;points=[[0,0.5],[1,0.5]];portConstraint=eastwest;fontStyle=2" vertex="1" parent="_bCPvopoZGER6yHDOMZf-96">
          <mxGeometry y="112" width="290" height="26" as="geometry"/>
        </mxCell>
      </root>
    </mxGraphModel>
  </diagram>
  <diagram id="pQ7dtovfqLk3mC11gynK" name="UML活动图">
    <mxGraphModel dx="1408" dy="718" grid="1" gridSize="10" guides="1" tooltips="1" connect="1" arrows="1" fold="1" page="1" pageScale="1" pageWidth="850" pageHeight="1100" math="0" shadow="0">
      <root>
        <mxCell id="rYr7WCL7WObzl--F8MwN-0"/>
        <mxCell id="rYr7WCL7WObzl--F8MwN-1" parent="rYr7WCL7WObzl--F8MwN-0"/>
      </root>
    </mxGraphModel>
  </diagram>
  <diagram id="Y8OaXgC5r_cKhnW7X01x" name="UML序列图">
    <mxGraphModel dx="1408" dy="718" grid="1" gridSize="10" guides="1" tooltips="1" connect="1" arrows="1" fold="1" page="1" pageScale="1" pageWidth="850" pageHeight="1100" math="0" shadow="0">
      <root>
        <mxCell id="ptsElyhNpNcPMQXLai7u-0"/>
        <mxCell id="ptsElyhNpNcPMQXLai7u-1" parent="ptsElyhNpNcPMQXLai7u-0"/>
      </root>
    </mxGraphModel>
  </diagram>
</mxfile>
